# xmcd
#
# Track frame offsets:
#	150
#	14308
#	35349
#	45662
#	56603
#	73228
#	86565
#	99655
#	113974
#	131477
#	142147
#	154535
#	169062
#	183367
#
# Disc length: 2659 seconds
# Revision: 0
# Processed by: cddbd v1.5.2PL0 Copyright (c) Steve Scherf et al.
# Submitted via: dBpowerAMP V12.0
#
DISCID=bf0a610e
DTITLE=Dallas Smith and the Boys From Shiloh - Still Pickin'
DYEAR=2000
DGENRE=Bluegrass
TTITLE0=I'm Gonna Settle Down
TTITLE1=Mother's Only Sleeping
TTITLE2=John Henry
TTITLE3=Blue Ridge Mountain Blues
TTITLE4=The Fall
TTITLE5=Plastic Flowers
TTITLE6=The Old Country Church
TTITLE7=Desert Flower
TTITLE8=My Home's Across the Blue Ridge Mountains
TTITLE9=Black Mountain Rag
TTITLE10=Foggy River
TTITLE11=Appalachian Mountains
TTITLE12=St. James Infirmary
TTITLE13=Canaan's Land
EXTD=
EXTT0=
EXTT1=
EXTT2=
EXTT3=
EXTT4=
EXTT5=
EXTT6=
EXTT7=
EXTT8=
EXTT9=
EXTT10=
EXTT11=
EXTT12=
EXTT13=
PLAYORDER=
